<?xml version="1.0" encoding="UTF-8" standalone="no"?>
<!DOCTYPE svg PUBLIC "-//W3C//DTD SVG 1.1//EN" "http://www.w3.org/Graphics/SVG/1.1/DTD/svg11.dtd">
<svg width="100%" height="100%" viewBox="0 0 2292 2292" version="1.1" xmlns="http://www.w3.org/2000/svg" xmlns:xlink="http://www.w3.org/1999/xlink" xml:space="preserve" xmlns:serif="http://www.serif.com/" style="fill-rule:evenodd;clip-rule:evenodd;stroke-linecap:square;stroke-linejoin:round;stroke-miterlimit:1.41421;">
    <g transform="matrix(1,0,0,1,-7875.31,-5627.86)">
        <g transform="matrix(1,0,0,1,3849.98,4675.44)">
            <g id="Logo_export.10pt">
                <g id="Base" transform="matrix(-1.24939,0,0,1.24939,7271.23,-574.702)">
                    <circle cx="1680.87" cy="2139.41" r="900.438" style="fill:none;stroke:black;stroke-width:33.35px;"/>
                </g>
                <g id="Inner-Circle" serif:id="Inner Circle" transform="matrix(-0.771847,0,0,0.771847,6468.54,442.962)">
                    <clipPath id="_clip1">
                        <rect x="677.165" y="1879.4" width="2027.26" height="1283.55"/>
                    </clipPath>
                    <g clip-path="url(#_clip1)">
                        <circle cx="1680.87" cy="2139.41" r="900.438" style="fill:none;stroke:black;stroke-width:53.98px;"/>
                    </g>
                </g>
                <g id="Line1" transform="matrix(1.5072,0,0,1,-2377.79,-413.744)">
                    <path d="M4421.04,1816C4421.04,1816 5204.35,1816 5596,1816" style="fill:none;stroke:black;stroke-width:32.58px;stroke-linecap:butt;"/>
                </g>
                <g transform="matrix(0.870328,0,0,0.820798,771.849,-3450.06)">
                    <path d="M3807.55,6484.62L4329,6485.83L4616.34,6977.93L4904.83,6483.87L4904.72,7502.24L4904.7,7564.38" style="fill:none;stroke:black;stroke-width:49.26px;stroke-linecap:butt;stroke-linejoin:miter;stroke-miterlimit:2;"/>
                </g>
                <g transform="matrix(0.686572,0,0,0.796212,1644.89,-3289.56)">
                    <path d="M6716.53,6484.88C6446.4,6484.88 5481.34,6484.88 5481.34,6484.88L4952.06,7096.34L5480.65,6484.88" style="fill:none;stroke:black;stroke-width:56.05px;stroke-linecap:butt;stroke-linejoin:miter;stroke-miterlimit:2;"/>
                </g>
                <g transform="matrix(1.53005,0,0,1.53005,-2864.55,-957.631)">
                    <path d="M5402.05,2412.62L5209.01,2130.31L5402.05,2412.62Z" style="fill:none;stroke:black;stroke-width:27.23px;stroke-linecap:butt;stroke-miterlimit:1;"/>
                </g>
            </g>
        </g>
    </g>
</svg>
