<?xml version="1.0" encoding="UTF-8" standalone="no"?>
<!DOCTYPE svg PUBLIC "-//W3C//DTD SVG 1.1//EN" "http://www.w3.org/Graphics/SVG/1.1/DTD/svg11.dtd">
<svg width="100%" height="100%" viewBox="0 0 171 171" version="1.1" xmlns="http://www.w3.org/2000/svg" xmlns:xlink="http://www.w3.org/1999/xlink" xml:space="preserve" xmlns:serif="http://www.serif.com/" style="fill-rule:evenodd;clip-rule:evenodd;stroke-linejoin:round;stroke-miterlimit:1.41421;">
    <g transform="matrix(1,0,0,1,-14.9,-14.9)">
        <path id="a" d="M59.8,144.7C59.145,143.866 58.378,143 57.5,142.1C52.691,137.301 46.824,134.901 39.9,134.9C33.003,134.907 27.103,137.307 22.2,142.1C22.135,142.202 22.068,142.269 22,142.3C21.28,143.133 20.58,143.933 19.9,144.7C19.887,144.785 19.853,144.852 19.8,144.9C16.548,149.235 14.915,154.235 14.9,159.9C14.901,166.824 17.301,172.691 22.1,177.5C27.05,182.44 32.983,184.907 39.9,184.9C46.803,184.897 52.67,182.43 57.5,177.5C62.43,172.67 64.897,166.803 64.9,159.9C64.885,154.235 63.252,149.235 60,144.9C59.946,144.852 59.88,144.785 59.8,144.7M29.2,149.2C29.269,149.17 29.336,149.103 29.4,149C32.326,146.26 35.826,144.893 39.9,144.9C44.042,144.899 47.542,146.332 50.4,149.2C51.055,149.834 51.622,150.434 52.1,151L52,150.9C53.948,153.498 54.915,156.498 54.9,159.9C54.903,164.04 53.436,167.54 50.5,170.4L50.4,170.5C47.54,173.436 44.04,174.903 39.9,174.9C35.749,174.892 32.183,173.392 29.2,170.4C26.332,167.542 24.899,164.042 24.9,159.9C24.885,156.498 25.852,153.498 27.8,150.9L27.6,151C28.129,150.436 28.662,149.836 29.2,149.2M80,144.8C79.987,144.885 79.953,144.952 79.9,145C76.648,149.335 75.015,154.335 75,160C75.001,166.924 77.401,172.791 82.2,177.6C87.15,182.54 93.083,185.007 100,185C106.903,184.997 112.77,182.53 117.6,177.6C122.53,172.77 124.997,166.903 125,160C124.985,154.335 123.352,149.335 120.1,145C120.046,144.952 119.98,144.885 119.9,144.8C119.245,143.966 118.478,143.1 117.6,142.2C112.791,137.401 106.924,135.001 100,135C93.103,135.007 87.203,137.407 82.3,142.2C82.235,142.302 82.168,142.369 82.1,142.4C81.38,143.233 80.68,144.033 80,144.8M112.2,151.1L112.1,151C114.048,153.598 115.015,156.598 115,160C115.003,164.14 113.536,167.64 110.6,170.5L110.5,170.6C107.64,173.536 104.14,175.003 100,175C95.849,174.992 92.283,173.492 89.3,170.5C86.432,167.642 84.999,164.142 85,160C84.985,156.598 85.952,153.598 87.9,151L87.7,151.1C88.229,150.536 88.762,149.936 89.3,149.3C89.369,149.27 89.436,149.203 89.5,149.1C92.426,146.36 95.926,144.993 100,145C104.142,144.999 107.642,146.432 110.5,149.3C111.155,149.934 111.722,150.534 112.2,151.1M22.2,82.1L22.1,82.2C17.307,87.103 14.907,93.003 14.9,99.9C14.901,106.824 17.301,112.691 22.1,117.5C27.05,122.44 32.983,124.907 39.9,124.9C46.803,124.897 52.67,122.43 57.5,117.5C62.43,112.67 64.897,106.803 64.9,99.9C64.907,92.983 62.44,87.05 57.5,82.1C52.691,77.301 46.824,74.901 39.9,74.9C33.003,74.907 27.103,77.307 22.2,82.1M29.2,89.2C32.188,86.327 35.754,84.893 39.9,84.9C44.042,84.899 47.542,86.332 50.4,89.2C53.392,92.183 54.892,95.749 54.9,99.9C54.903,104.04 53.436,107.54 50.5,110.4L50.4,110.5C47.54,113.436 44.04,114.903 39.9,114.9C35.749,114.892 32.183,113.392 29.2,110.4C26.332,107.542 24.899,104.042 24.9,99.9C24.893,95.754 26.327,92.188 29.2,89.2M64.9,39.9C64.907,32.983 62.44,27.05 57.5,22.1C52.691,17.301 46.824,14.901 39.9,14.9C33.003,14.907 27.103,17.307 22.2,22.1L22.1,22.2C17.307,27.103 14.907,33.003 14.9,39.9C14.901,46.824 17.301,52.691 22.1,57.5C27.05,62.44 32.983,64.907 39.9,64.9C46.803,64.897 52.67,62.43 57.5,57.5C62.43,52.67 64.897,46.803 64.9,39.9M50.4,29.2C53.392,32.183 54.892,35.749 54.9,39.9C54.903,44.04 53.436,47.54 50.5,50.4L50.4,50.5C47.54,53.436 44.04,54.903 39.9,54.9C35.749,54.892 32.183,53.392 29.2,50.4C26.332,47.542 24.899,44.042 24.9,39.9C24.893,35.754 26.327,32.188 29.2,29.2C32.188,26.327 35.754,24.893 39.9,24.9C44.042,24.899 47.542,26.332 50.4,29.2M100,75C93.103,75.007 87.203,77.407 82.3,82.2L82.2,82.3C77.407,87.203 75.007,93.103 75,100C75.001,106.924 77.401,112.791 82.2,117.6C87.15,122.54 93.083,125.007 100,125C106.903,124.997 112.77,122.53 117.6,117.6C122.53,112.77 124.997,106.903 125,100C125.007,93.083 122.54,87.15 117.6,82.2C112.791,77.401 106.924,75.001 100,75M89.3,89.3C92.287,86.427 95.854,84.993 100,85C104.142,84.999 107.642,86.432 110.5,89.3C113.492,92.283 114.992,95.849 115,100C115.003,104.14 113.536,107.64 110.6,110.5L110.5,110.6C107.64,113.536 104.14,115.003 100,115C95.849,114.992 92.283,113.492 89.3,110.5C86.432,107.642 84.999,104.142 85,100C84.993,95.854 86.427,92.287 89.3,89.3M117.6,22.2C112.791,17.401 106.924,15.001 100,15C93.103,15.007 87.203,17.407 82.3,22.2L82.2,22.3C77.407,27.203 75.007,33.103 75,40C75.001,46.924 77.401,52.791 82.2,57.6C87.15,62.54 93.083,65.007 100,65C106.903,64.997 112.77,62.53 117.6,57.6C122.53,52.77 124.997,46.903 125,40C125.007,33.083 122.54,27.15 117.6,22.2M110.5,29.3C113.492,32.283 114.992,35.849 115,40C115.003,44.14 113.536,47.64 110.6,50.5L110.5,50.6C107.64,53.536 104.14,55.003 100,55C95.849,54.992 92.283,53.492 89.3,50.5C86.432,47.642 84.999,44.142 85,40C84.993,35.854 86.427,32.288 89.3,29.3C92.287,26.427 95.854,24.993 100,25C104.142,24.999 107.642,26.432 110.5,29.3M177.6,177.6C182.53,172.77 184.997,166.903 185,160C185.007,153.083 182.54,147.15 177.6,142.2C172.791,137.401 166.924,135.001 160,135C153.103,135.007 147.203,137.407 142.3,142.2L142.2,142.3C137.407,147.203 135.007,153.103 135,160C135.001,166.924 137.401,172.791 142.2,177.6C147.15,182.54 153.083,185.007 160,185C166.903,184.997 172.77,182.53 177.6,177.6M175,160C175.003,164.14 173.536,167.64 170.6,170.5L170.5,170.6C167.64,173.536 164.14,175.003 160,175C155.849,174.992 152.283,173.492 149.3,170.5C146.432,167.642 144.999,164.142 145,160C144.993,155.854 146.427,152.288 149.3,149.3C152.288,146.427 155.854,144.993 160,145C164.142,144.999 167.642,146.432 170.5,149.3C173.492,152.283 174.992,155.849 175,160M177.6,117.6C182.53,112.77 184.997,106.903 185,100C185.007,93.083 182.54,87.15 177.6,82.2C172.791,77.401 166.924,75.001 160,75C153.103,75.007 147.203,77.407 142.3,82.2L142.2,82.3C137.407,87.203 135.007,93.103 135,100C135.001,106.924 137.401,112.791 142.2,117.6C147.15,122.54 153.083,125.007 160,125C166.903,124.997 172.77,122.53 177.6,117.6M170.6,110.5L170.5,110.6C167.64,113.536 164.14,115.003 160,115C155.849,114.992 152.283,113.492 149.3,110.5C146.432,107.642 144.999,104.142 145,100C144.993,95.854 146.427,92.287 149.3,89.3C152.288,86.427 155.854,84.993 160,85C164.142,84.999 167.642,86.432 170.5,89.3C173.492,92.283 174.992,95.849 175,100C175.003,104.14 173.536,107.64 170.6,110.5M185,40C185.007,33.083 182.54,27.15 177.6,22.2C172.791,17.401 166.924,15.001 160,15C153.103,15.007 147.203,17.407 142.3,22.2L142.2,22.3C137.407,27.203 135.007,33.103 135,40C135.001,46.924 137.401,52.791 142.2,57.6C147.15,62.54 153.083,65.007 160,65C166.903,64.997 172.77,62.53 177.6,57.6C182.53,52.77 184.997,46.903 185,40M170.5,29.3C173.492,32.283 174.992,35.849 175,40C175.003,44.14 173.536,47.64 170.6,50.5L170.5,50.6C167.64,53.536 164.14,55.003 160,55C155.849,54.992 152.283,53.492 149.3,50.5C146.432,47.642 144.999,44.142 145,40C144.993,35.854 146.427,32.288 149.3,29.3C152.288,26.427 155.854,24.993 160,25C164.142,24.999 167.642,26.432 170.5,29.3Z" style="fill-rule:nonzero;"/>
    </g>
</svg>
